<svg width="117" height="30" viewBox="0 0 117 30" fill="none" xmlns="http://www.w3.org/2000/svg">
<path d="M66.3739 9.58185C66.3739 6.15131 66.4329 2.95736 66.6099 0L57.5822 1.71527V2.54333L58.4673 2.66163C59.1163 2.72077 59.5294 2.95736 59.7654 3.31224C60.0014 3.72628 60.1784 4.31775 60.2964 5.20496C60.4144 6.92023 60.5324 10.8239 60.4734 16.9753C60.4734 23.0674 60.4144 26.912 60.2964 28.3907C63.5417 29.1004 66.0789 29.3962 67.967 29.3962C71.5073 29.3962 74.2806 28.3907 76.2867 26.3205C78.2929 24.3095 79.355 21.4704 79.355 17.9808C79.355 15.2008 78.5879 12.8941 77.0538 11.0605C75.5197 9.22697 73.5725 8.33976 71.2713 8.33976C69.7372 8.33976 68.1441 8.75379 66.3739 9.58185ZM66.5509 27.7992C66.4329 25.9065 66.3149 20.2284 66.3149 10.9422C66.846 10.7648 67.554 10.6465 68.4391 10.6465C69.8552 10.6465 70.9763 11.3563 71.8024 12.8349C72.6284 14.3136 73.0415 16.088 73.0415 18.3356C73.0415 21.1156 72.5694 23.3632 71.6253 25.2559C70.6813 27.0894 69.5012 28.0358 68.026 28.0358C67.554 27.9175 67.082 27.8583 66.5509 27.7992ZM23.7135 0.591472H0.111572V1.77442L1.35067 1.89271C2.29475 2.07015 2.9438 2.42504 3.35683 2.95736C3.76987 3.54883 4.00589 4.49519 4.06489 5.79643C4.53693 12.1843 4.53693 18.1582 4.06489 23.6589C3.94688 24.9601 3.71086 25.9065 3.35683 26.498C2.9438 27.0894 2.29475 27.4443 1.35067 27.5626L0.111572 27.74V28.923H15.3348V27.74L13.7417 27.6218C12.7976 27.5035 12.1485 27.0894 11.7355 26.5571C11.3225 25.9656 11.0865 25.0193 11.0275 23.718C10.8504 21.3521 10.7324 18.6314 10.7324 15.6149L13.9187 15.674C15.6298 15.7332 16.8099 17.0344 17.4 19.6369H18.5801V9.99588H17.4C16.8099 12.5392 15.6888 13.8405 13.9187 13.8996L10.7324 13.9587C10.7324 8.6355 10.8504 4.85007 11.0275 2.54333H15.6888C18.9931 2.54333 21.2353 4.67263 22.5334 8.93123L23.9495 8.5172L23.7135 0.591472ZM20.9403 18.8088C20.9403 21.8845 21.8253 24.4278 23.5365 26.4388C25.2476 28.4498 27.7848 29.3962 30.9711 29.3962C34.1573 29.3962 36.7535 28.3907 38.6417 26.3205C40.5298 24.3095 41.4149 21.7662 41.4149 18.6905C41.4149 15.6149 40.5298 13.0715 38.8187 11.0605C37.1076 9.04953 34.5704 8.10317 31.3841 8.10317C28.1978 8.10317 25.6016 9.10867 23.7135 11.1788C21.8253 13.1898 20.9403 15.7332 20.9403 18.8088ZM34.0983 12.066C34.8064 13.7813 35.1014 16.0289 35.1014 18.7497C35.1014 25.0193 33.8033 28.0949 31.2661 28.0949C29.968 28.0949 28.9649 27.2077 28.2568 25.4333C27.5488 23.6589 27.2538 21.4113 27.2538 18.7497C27.2538 12.5392 28.5519 9.46356 31.0891 9.46356C32.3872 9.40441 33.3903 10.2916 34.0983 12.066ZM83.9573 26.4388C85.9045 28.3907 88.3827 29.3962 91.3329 29.3962C93.1621 29.3962 94.7552 29.0413 96.1713 28.2724C97.5874 27.5626 98.7085 26.6754 99.4756 25.6107L98.8855 24.901C97.5874 25.9065 96.1123 26.3797 94.4012 26.3797C92.041 26.3797 90.2118 25.6107 88.9727 24.0138C87.6746 22.4168 87.0846 20.4058 87.2026 17.8033H99.8296C99.8296 14.9642 99.1216 12.6575 97.6464 10.8239C96.1713 9.04953 94.1062 8.16232 91.4509 8.16232C88.1467 8.16232 85.6095 9.22697 83.7803 11.2971C81.9512 13.3673 81.0661 15.9106 81.0661 18.9271C81.0661 22.0028 82.0102 24.487 83.9573 26.4388ZM88.3237 11.5929C88.9727 10.1733 89.7988 9.46356 90.9199 9.46356C92.69 9.46356 93.5751 11.7112 93.5751 16.2655L87.3206 16.3838C87.3796 14.6094 87.6746 13.0124 88.3237 11.5929ZM115.702 9.22697C114.109 8.5172 112.103 8.10317 109.683 8.10317C107.205 8.10317 105.258 8.75379 103.783 9.99588C102.308 11.238 101.541 12.7758 101.541 14.6094C101.541 16.2063 102.013 17.4484 102.898 18.3356C103.783 19.2228 105.199 19.9918 107.028 20.6424C108.68 21.2339 109.86 21.8253 110.45 22.3577C111.041 22.9491 111.395 23.5997 111.395 24.487C111.395 25.315 111.1 26.0839 110.45 26.6754C109.86 27.326 109.034 27.6218 107.972 27.6218C105.376 27.6218 103.429 25.729 102.072 21.9436L101.069 22.2394L101.305 28.1541C103.429 28.9821 105.789 29.3962 108.385 29.3962C111.1 29.3962 113.165 28.8047 114.699 27.5626C116.233 26.3797 117 24.6644 117 22.5351C117 21.1156 116.646 19.9326 115.879 19.0454C115.112 18.1582 113.873 17.3893 112.103 16.6795C110.155 15.9698 108.798 15.3191 108.09 14.7277C107.382 14.1362 107.028 13.4264 107.028 12.5392C107.028 11.652 107.264 10.9422 107.795 10.3508C108.326 9.75929 108.975 9.5227 109.801 9.5227C112.162 9.5227 113.873 11.238 114.935 14.6094L115.938 14.3136L115.702 9.22697ZM58.9393 8.69464C58.1133 8.28061 57.2282 8.10317 56.2251 8.10317C55.222 8.10317 54.2189 8.5172 53.0978 9.34526C51.9768 10.1733 51.1507 11.2971 50.5016 12.8349L50.5606 8.10317L41.5919 9.87759V10.7056L42.477 10.7648C43.5981 10.8831 44.2471 11.7703 44.3651 13.3673C44.7192 17.0344 44.7192 20.9381 44.3651 25.0784C44.2471 26.6754 43.5981 27.5035 42.477 27.6809L41.5919 27.7992V28.923H54.1009V27.7992L52.5078 27.6809C51.3867 27.5626 50.7377 26.6754 50.6196 25.0784C50.2656 21.6479 50.2066 17.9808 50.5016 14.1953C50.8557 13.6039 51.6227 13.249 52.8028 13.1307C53.9829 13.0124 55.34 13.3673 56.7561 14.1953L58.9393 8.69464Z" fill="#A6B2C1"/>
</svg>
