<svg width="56" height="54" viewBox="0 0 56 54" fill="none" xmlns="http://www.w3.org/2000/svg">
<path d="M53.4476 30.9633C48.6476 39.3633 20.4476 53.0633 20.4476 53.0633C20.4476 53.0633 20.4476 52.9633 20.4476 52.8633C20.3476 52.9633 20.3476 53.0633 20.3476 53.0633C20.3476 53.0633 0.747596 28.5633 0.0475961 18.9633C-0.652404 9.36327 6.44759 0.763273 16.1476 0.0632734C22.0476 -0.436727 27.3476 2.06327 30.9476 6.26327C35.9476 4.06327 41.8476 4.16327 46.9476 7.06327C55.3476 11.8633 58.2476 22.5633 53.4476 30.9633Z" fill="#F95738"/>
<path d="M7.04761 13.7636C8.44761 8.16361 15.1476 4.56361 20.6476 6.36361" stroke="white" stroke-width="2" stroke-miterlimit="10" stroke-linecap="round" stroke-linejoin="round"/>
</svg>
