<svg width="116" height="25" viewBox="0 0 116 25" fill="none" xmlns="http://www.w3.org/2000/svg">
<path d="M9.11031 17.4461L9.7691 15.3512C9.99379 14.6734 10.2205 13.9936 10.4478 13.3134C10.7771 12.3279 9.94894 11.3405 8.91988 11.4844C3.62513 12.2246 2.38738 12.3657 1.86093 13.9569C1.40696 15.3289 2.32134 17.4461 5.92391 17.4461H9.11031Z" fill="#0059D2"/>
<path d="M5.78249 17.3623C2.05283 17.3623 1.63247 15.2953 1.86092 13.9568L0.321704 18.6908C-0.869047 22.4079 1.40503 24.4245 4.52403 24.4245H13.8623C14.4638 24.4245 14.9976 24.0392 15.187 23.4684L16.6044 19.1976C16.9042 18.2942 16.2316 17.3623 15.2798 17.3623H5.78249Z" fill="#35A7FF"/>
<path d="M11.6691 6.2806L12.3279 4.18565C12.5525 3.50782 12.7793 2.82812 13.0065 2.1479C13.3358 1.16239 12.5077 0.175005 11.4786 0.318871C6.18388 1.0591 4.94613 1.20019 4.41968 2.79138C3.9657 4.16339 4.88008 6.2806 8.48266 6.2806H11.6691Z" fill="#0059D2"/>
<path d="M8.34125 6.19699C4.61159 6.19699 4.19123 4.13003 4.41968 2.7915L2.88047 7.52556C1.68971 11.2426 3.9638 13.2592 7.08279 13.2592H16.4211C17.0225 13.2592 17.5563 12.8739 17.7458 12.3031L19.1632 8.0323C19.463 7.12889 18.7904 6.19699 17.8385 6.19699H8.34125Z" fill="#35A7FF"/>
<path d="M38.8672 3.13562H24.5902C24.2776 3.13562 24.0952 3.31799 24.0952 3.63063V5.97538C24.0952 6.28802 24.2776 6.47039 24.5902 6.47039H29.905V21.6592C29.905 21.9719 30.0874 22.1542 30.4 22.1542H33.0835C33.3961 22.1542 33.5785 21.9719 33.5785 21.6592V6.47039H38.8672C39.1798 6.47039 39.3622 6.28802 39.3622 5.97538V3.63063C39.3622 3.31799 39.1798 3.13562 38.8672 3.13562Z" fill="#061A36"/>
<path d="M42.1969 22.1542C42.5095 22.1542 42.6658 21.9719 42.6658 21.6592V14.5207C42.6658 11.9675 43.5777 11.1078 45.714 11.1078H47.0167C47.3293 11.1078 47.5117 10.9254 47.5117 10.6128V8.32014C47.5117 8.00751 47.3293 7.82514 47.0167 7.82514H45.688C43.5516 7.82514 42.9785 9.49252 42.9785 9.49252H42.6658V8.58067C42.6658 8.26804 42.5095 8.08567 42.1969 8.08567H39.6437C39.3311 8.08567 39.1487 8.26804 39.1487 8.58067V21.6592C39.1487 21.9719 39.3311 22.1542 39.6437 22.1542H42.1969Z" fill="#061A36"/>
<path d="M58.59 8.08567C58.2774 8.08567 58.095 8.26804 58.095 8.58067V16.9958C58.095 18.6892 56.9748 19.4708 55.7242 19.4708C54.4737 19.4708 53.3795 18.6892 53.3795 16.9958V8.58067C53.3795 8.26804 53.1971 8.08567 52.8845 8.08567H50.3313C50.0186 8.08567 49.8623 8.26804 49.8623 8.58067V17.4126C49.8623 20.5389 51.66 22.4148 54.3434 22.4148C57.0008 22.4148 57.7824 20.565 57.7824 20.565H58.095V21.6592C58.095 21.9719 58.2774 22.1542 58.59 22.1542H61.1432C61.4559 22.1542 61.6382 21.9719 61.6382 21.6592V8.58067C61.6382 8.26804 61.4559 8.08567 61.1432 8.08567H58.59Z" fill="#061A36"/>
<path d="M70.3481 7.82514C66.1275 7.82514 63.7307 10.9254 63.7307 15.0678C63.7307 19.2624 66.1015 22.4148 70.5305 22.4148C74.2821 22.4148 75.7411 20.07 76.1579 19.106C76.2882 18.8195 76.184 18.611 75.8974 18.4547L73.7871 17.5168C73.5266 17.3865 73.2921 17.4908 73.1618 17.7513C72.8752 18.3766 72.1458 19.3926 70.5305 19.3926C68.7589 19.3926 67.5344 18.2723 67.352 16.0839H76.1579C76.4705 16.0839 76.6529 15.9015 76.6529 15.5889V14.9897C76.6529 10.5607 74.3081 7.82514 70.3481 7.82514ZM70.3221 10.717C71.755 10.717 72.9273 11.6289 73.0576 13.661H67.352C67.5344 11.6289 68.8631 10.717 70.3221 10.717Z" fill="#061A36"/>
<path d="M86.1122 7.82514C83.533 7.82514 82.6211 9.44042 82.6211 9.44042H82.3085V3.3701C82.3085 3.05746 82.1261 2.87509 81.8135 2.87509H79.2603C78.9477 2.87509 78.7913 3.05746 78.7913 3.3701V21.6592C78.7913 21.9719 78.9477 22.1542 79.2603 22.1542H81.8135C82.1261 22.1542 82.3085 21.9719 82.3085 21.6592V20.7474H82.6211C82.6211 20.7474 83.533 22.3626 86.1122 22.3626C89.7335 22.3626 91.8699 19.1842 91.8699 15.0939C91.8699 11.0036 89.7335 7.82514 86.1122 7.82514ZM85.1743 19.4187C83.1422 19.4187 82.1261 17.621 82.1261 15.0939C82.1261 12.5668 83.1422 10.7691 85.1743 10.7691C87.2325 10.7691 88.1964 12.5668 88.1964 15.0939C88.1964 17.621 87.2325 19.4187 85.1743 19.4187Z" fill="#061A36"/>
<path d="M94.0518 4.308C94.0518 5.61064 95.0158 6.54855 96.3184 6.54855C97.6211 6.54855 98.585 5.61064 98.585 4.308C98.585 3.03141 97.6211 2.09351 96.3184 2.09351C95.0158 2.09351 94.0518 3.03141 94.0518 4.308ZM94.5468 21.6592C94.5468 21.9719 94.7292 22.1542 95.0418 22.1542H97.595C97.9077 22.1542 98.09 21.9719 98.09 21.6592V8.58067C98.09 8.26804 97.9077 8.08567 97.595 8.08567H95.0418C94.7292 8.08567 94.5468 8.26804 94.5468 8.58067V21.6592Z" fill="#061A36"/>
<path d="M107.502 22.1542C107.814 22.1542 107.997 21.9719 107.997 21.6592V19.575C107.997 19.2624 107.814 19.106 107.502 19.106H106.017C105.443 19.106 105.105 18.7673 105.105 18.1942V3.3701C105.105 3.05746 104.922 2.87509 104.61 2.87509H102.057C101.744 2.87509 101.588 3.05746 101.588 3.3701V18.4547C101.588 20.8516 102.864 22.1542 105.261 22.1542H107.502Z" fill="#061A36"/>
<path d="M115.505 22.1542C115.818 22.1542 116 21.9719 116 21.6592V19.575C116 19.2624 115.818 19.106 115.505 19.106H114.02C113.447 19.106 113.108 18.7673 113.108 18.1942V3.3701C113.108 3.05746 112.926 2.87509 112.613 2.87509H110.06C109.747 2.87509 109.591 3.05746 109.591 3.3701V18.4547C109.591 20.8516 110.868 22.1542 113.264 22.1542H115.505Z" fill="#061A36"/>
</svg>
