<svg width="108" height="33" viewBox="0 0 108 33" fill="none" xmlns="http://www.w3.org/2000/svg">
<path d="M107.165 10.6799V6.34225H98.475V10.6799H100.631L97.7193 20.3796L94.7633 10.6799H96.9414V6.34225H87.2734V10.6799H88.6514L94.1633 26.2866C94.7633 28.0739 94.141 28.815 93.0075 28.815C92.0074 28.815 91.3851 28.2919 91.274 26.8751H87.7623V32.3679C89.5404 32.7821 91.1851 33 92.4519 33C96.4969 33 98.4972 31.5396 100.009 27.1584L105.832 10.7017H107.165V10.6799ZM75.7829 17.5023H87.1845V15.3226C87.1845 10.0042 84.473 5.9717 78.5166 5.9717C73.227 5.9717 69.6487 9.50282 69.6487 16.1073V16.3907C69.6487 23.7145 73.4937 26.5263 79.4278 26.5263C81.6948 26.5263 84.9175 25.7852 86.8289 24.8915V19.6602H82.6727C82.3616 21.4694 81.2726 22.2759 79.6279 22.2759C77.1386 22.2759 75.7607 21.0771 75.7607 18.0909V17.5023H75.7829ZM75.8051 14.1238C75.9607 11.4864 77.072 10.3093 78.6722 10.3093C80.4724 10.3093 81.3615 11.4646 81.4503 14.1238H75.8051ZM61.8031 26.0686H69.0486V21.731H67.6262V11.9659C67.6262 8.28219 65.8259 5.9499 62.2921 5.9499C60.0029 5.9499 57.9359 7.32312 56.8024 9.50282V6.34225H49.4903V10.6799H50.8905V21.731H49.4903V26.0686H59.2917V21.731H56.958V14.0148C56.958 12.2057 57.8026 11.1594 59.425 11.1594C61.0919 11.1594 61.8031 12.2275 61.8031 14.0148V26.0686ZM49.0458 16.3907V16.1073C49.0458 9.45923 45.3564 5.9717 39.8 5.9717C34.2659 5.9717 30.5543 9.45923 30.5543 16.1073V16.3907C30.5543 23.0388 34.2437 26.5263 39.8 26.5263C45.3564 26.5263 49.0458 23.017 49.0458 16.3907ZM42.9338 16.5869C42.9338 16.8484 42.9338 17.4587 42.9116 17.6985C42.7782 20.4885 41.8003 21.9489 39.8 21.9489C37.7998 21.9489 36.8441 20.5103 36.6885 17.7639C36.6663 17.5023 36.6663 16.9792 36.6663 16.6958V15.0393C36.7552 12.1621 37.6886 10.5709 39.7778 10.5709C41.9337 10.5709 42.8449 12.271 42.8894 15.3008V16.1073C42.9338 16.1073 42.9338 16.5651 42.9338 16.5869ZM19.8639 26.0686H30.5765V21.731H28.4651V4.40231H30.5543V0.0646973H18.8193L15.6411 15.0611L12.2406 0.0646973H0.683411V4.40231H2.75037V21.731H0.683411V26.0686H9.68468V21.731H7.52882V5.44857L12.3517 26.0686H17.2191L21.9753 5.49216V21.7528H19.8861V26.0686H19.8639Z" fill="#A6B2C1"/>
</svg>
