<svg width="24" height="24" viewBox="0 0 24 24" fill="none" xmlns="http://www.w3.org/2000/svg">
<path d="M10.0979 5.8541C10.6966 4.01148 13.3034 4.01148 13.9021 5.8541L14.2451 6.90983C14.5129 7.73387 15.2808 8.2918 16.1473 8.2918H17.2573C19.1948 8.2918 20.0003 10.771 18.4329 11.9098L17.5348 12.5623C16.8339 13.0716 16.5405 13.9743 16.8083 14.7984L17.1513 15.8541C17.75 17.6967 15.6411 19.229 14.0736 18.0902L13.1756 17.4377C12.4746 16.9284 11.5254 16.9284 10.8244 17.4377L9.92638 18.0902C8.35895 19.229 6.24999 17.6967 6.84869 15.8541L7.19172 14.7984C7.45947 13.9743 7.16615 13.0716 6.46517 12.5623L5.56712 11.9098C3.99969 10.771 4.80524 8.2918 6.74269 8.2918H7.85275C8.7192 8.2918 9.48711 7.73387 9.75486 6.90983L10.0979 5.8541Z" fill="#FFCF3B"/>
</svg>
