<svg width="24" height="24" viewBox="0 0 24 24" fill="none" xmlns="http://www.w3.org/2000/svg">
<path d="M13.9021 5.8541C13.3034 4.01148 10.6966 4.01148 10.0979 5.8541L9.75486 6.90983C9.48711 7.73387 8.7192 8.2918 7.85275 8.2918H6.74269C4.80525 8.2918 3.99969 10.771 5.56712 11.9098L6.46517 12.5623C7.16615 13.0716 7.45947 13.9743 7.19172 14.7984L6.84869 15.8541C6.24999 17.6967 8.35895 19.229 9.92638 18.0902L10.8244 17.4377C11.5254 16.9284 12.4746 16.9284 13.1756 17.4377L14.0736 18.0902C15.6411 19.229 17.75 17.6967 17.1513 15.8541L16.8083 14.7984C16.5405 13.9743 16.8339 13.0716 17.5348 12.5623L18.4329 11.9098C20.0003 10.771 19.1948 8.2918 17.2573 8.2918H16.1473C15.2808 8.2918 14.5129 7.73388 14.2451 6.90983L13.9021 5.8541Z" fill="#E4E8ED"/>
<path d="M12 17.0558C11.5875 17.0558 11.1749 17.1831 10.8244 17.4377L9.92638 18.0902C8.35895 19.229 6.24999 17.6968 6.8487 15.8541L7.19172 14.7984C7.45947 13.9744 7.16615 13.0716 6.46518 12.5623L5.56712 11.9099C3.9997 10.7711 4.80525 8.29183 6.7427 8.29183H7.85275C8.7192 8.29183 9.48712 7.73391 9.75486 6.90986L10.0979 5.85413C10.3972 4.93282 11.1986 4.47217 12 4.47217V17.0558Z" fill="#FFCF3B"/>
</svg>
