<svg width="54" height="31" viewBox="0 0 54 31" fill="none" xmlns="http://www.w3.org/2000/svg">
<path fill-rule="evenodd" clip-rule="evenodd" d="M12.987 5.52646C12.1645 1.51114 11.9048 1.38162 10 1.25209V0.561281H18.4849V1.25209C16.1905 1.46797 16.1039 1.46797 16.9697 6.13092L19.7403 20.8969L23.0737 5.00836C23.7663 1.77019 23.5066 1.42479 21.342 1.29526L20.6494 1.25209V0.561281H26.6667V1.25209C24.8486 1.42479 24.8486 1.85655 24.1126 5.35376L18.6581 31H18.1386L13.5065 8.03064L8.61474 31H8.09526L2.55412 4.10167C2.07793 1.72702 1.99135 1.38162 0 1.25209V0.561281H8.22513V1.25209C6.1472 1.46797 6.06062 1.68384 6.92643 6.13092L9.74029 20.7674L12.9438 5.52646H12.987ZM34.9785 30.8273C31.9914 30.8273 30.2165 28.0641 29.5239 28.0641C28.788 28.0641 27.9654 29.6616 27.7057 30.3092H27.0996V20.4652H27.7057C29.5672 25.8621 32.4676 30.1365 34.8919 30.1365C36.3204 30.1365 37.2295 28.8412 37.2295 26.8983C37.2295 19.7744 27.2295 15.1546 27.2295 6.3468C27.2295 2.76323 29.7403 0 32.4676 0C34.9352 0 36.2772 1.98607 37.0997 1.98607C37.5326 1.98607 37.8356 1.68384 38.3551 0.388579H38.8313V9.19638H38.2252C37.0564 4.922 34.6754 0.647632 32.381 0.647632C30.9525 0.647632 29.9135 1.98607 29.9135 3.88579C29.9135 10.7507 39.9135 15.1114 39.9135 24.2214C39.9135 28.0209 37.6191 30.8273 34.9785 30.8273ZM45.3681 30.8273C42.3378 30.8273 41.1257 28.9276 41.1257 27.071C41.1257 25.2145 42.2512 23.3579 43.8962 23.3579C45.6711 23.3579 46.4071 25.1281 45.5845 26.4234C44.8919 27.5028 43.0737 27.6323 43.0737 28.4958C43.0737 29.7911 44.156 30.1365 45.0651 30.1365C47.7058 30.1365 47.5326 28.4958 47.5326 22.9262V3.19499C47.5326 1.64067 47.1863 1.25209 45.498 1.25209H44.8486V0.561281H53.5932V1.25209H52.8573C51.9482 1.25209 51.6019 1.64067 51.6019 3.23816V22.5376C51.6019 27.9777 47.7058 30.8273 45.3681 30.8273Z" fill="#A6B2C1"/>
</svg>
